<?xml version="1.0" encoding="UTF-8"?>
<svg width="125px" height="125px" viewBox="0 0 125 125" version="1.1" xmlns="http://www.w3.org/2000/svg" xmlns:xlink="http://www.w3.org/1999/xlink">
    <!-- Generator: Sketch 55 (78076) - https://sketchapp.com -->
    <defs>
        <linearGradient x1="50%" y1="0%" x2="50%" y2="100%" id="linearGradient">
            <stop stop-color="#FFED00" offset="0%"></stop>
            <stop stop-color="#F9BA00" offset="100%"></stop>
        </linearGradient>
    </defs>
    <g>
        <path d="M71.4665347,1.5 L48.5860777,41.5 L79.7264478,41.5 L102.606905,1.5 L71.4665347,1.5 Z" id="Rectangle" stroke="#005FB5" stroke-width="3" fill="#0073D6"></path>
        <path d="M43,71 L42,71 L42,72 L43,72 L43,71 Z M82,71 L82,72 L83,72 L83,71 L82,71 Z M41,72.4878508 L41,71.747965 L42,71.747965 L41.7507415,72.716402 C41.4955775,72.6507273 41.24518,72.5743637 41,72.4878508 Z M41,72.4878508 C37.4544675,71.2367939 35,67.863356 35,64 L35,38 C35,33.0294373 39.0294373,29 44,29 L81,29 C85.9705627,29 90,33.0294373 90,38 L90,64 C90,67.863356 87.5455325,71.2367939 84,72.4878508 L84,73 L81,73 L81,71 C81.3372984,71 81.6711812,70.9762152 82,70.9292432 L82,45 C82,41.1340068 78.8659932,38 75,38 L50,38 C46.1340068,38 43,41.1340068 43,45 L43,70.9292454 C43.3288188,70.9762152 43.6627016,71 44,71 L44,73 L41,73 L41,72.4878508 Z M84,72.4878508 C83.75482,72.5743637 83.5044225,72.6507273 83.2492585,72.716402 L83,71.747965 L84,71.747965 L84,72.4878508 Z M43,70.9292454 L43,71.747965 L42,71.747965 L42.2492585,70.779528 C42.4959921,70.8430329 42.7464911,70.8930292 43,70.9292432 Z" id="Rectangle" stroke="#DBC900" stroke-width="2" fill="#FFD900"></path>
        <path d="M21.6283788,1.5 L45.2595498,41.5 L76.3716212,41.5 L52.7404502,1.5 L21.6283788,1.5 Z" id="Rectangle" stroke="#008CD9" stroke-width="3" fill="#00A0FB"></path>
        <circle id="Oval" stroke="#DBC100" stroke-width="4" fill="url(#linearGradient)" cx="63" cy="84" r="37"></circle>
    </g>
</svg>